<?xml version="1.0"?>
<svg id="Layer_4" style="enable-background:new 0 0 128 128;" version="1.1" viewBox="0 0 128 128" xml:space="preserve" xmlns="http://www.w3.org/2000/svg" xmlns:xlink="http://www.w3.org/1999/xlink">
<style type="text/css">
    .st0{fill:#C9B53A;}
    .st1{fill:#231F20;}
    .st2{fill:#FFF066;}
</style>
<path class="st0" d="M22.6,56.8c-4.6,7.4-0.5,15.5,8.3,15.6c7.5,0.1,14.3-5.5,19.4-10.3c2.2-2,4.1-4.3,5.9-6.7  c-4.1-4.5-9.1-8-15.5-8.1C33.8,47.3,26.3,50.9,22.6,56.8z"/>
<path class="st1" d="M97.4,33c-8.4-3-18-2.4-25.2,3.2c-5.1,4-8.9,9.5-12.7,14.9c-5.9-6.2-13.6-10-22.5-8.8  c-9.2,1.3-18.4,7.4-21.3,16.5c-1,3.3-1.1,7.4,0.4,10.5c9.2,18,29.7,28.8,49.6,27.5c16.7-1.1,35.1-8.3,43.5-23.7  C116.7,59.5,113.1,38.6,97.4,33z"/>
<path class="st2" d="M85.5,86.6c15.5-6.8,29.3-24.6,18.7-41.6c-5.5-8.9-19.4-11.1-27.9-5.2c-4.9,3.4-8,8.9-11.4,13.7  C61.7,58,58.2,62.2,54.2,66c-6.6,6.2-15.5,12.8-25.1,11.8C43.5,91.9,66.7,94.9,85.5,86.6z"/>
</svg>