<svg width="44" height="49" viewBox="0 0 44 49" fill="none" xmlns="http://www.w3.org/2000/svg">
<path d="M11.28 32.9333V42.2182C11.28 44.7781 9.19741 46.8533 6.64 46.8533C4.07737 46.8533 2 44.7694 2 42.2182" stroke="#019BF2" stroke-width="3" stroke-miterlimit="10" stroke-linecap="round" stroke-linejoin="round"/>
<path d="M32.9336 32.9333V42.2182C32.9336 44.7781 35.0162 46.8533 37.5736 46.8533C40.136 46.8533 42.2136 44.7694 42.2136 42.2182" stroke="#019BF2" stroke-width="3" stroke-miterlimit="10" stroke-linecap="round" stroke-linejoin="round"/>
<path d="M22.1064 32.9333V46.08" stroke="#019BF2" stroke-width="3" stroke-miterlimit="10" stroke-linecap="round" stroke-linejoin="round"/>
<path d="M16.6934 32.9333V41.44" stroke="#019BF2" stroke-width="3" stroke-miterlimit="10" stroke-linecap="round" stroke-linejoin="round"/>
<path d="M27.5195 32.9333V41.44" stroke="#019BF2" stroke-width="3" stroke-miterlimit="10" stroke-linecap="round" stroke-linejoin="round"/>
<path fill-rule="evenodd" clip-rule="evenodd" d="M3.54688 17.4667C3.54688 8.92462 10.469 2 19.0205 2H23.6466C32.1927 2 39.1202 8.92288 39.1202 17.4667V32.9333H3.54688V17.4667Z" stroke="#019BF2" stroke-width="3" stroke-miterlimit="10" stroke-linecap="round" stroke-linejoin="round"/>
<path d="M31.3864 21.3334C32.6677 21.3334 33.7064 20.2947 33.7064 19.0134C33.7064 17.7321 32.6677 16.6934 31.3864 16.6934C30.1051 16.6934 29.0664 17.7321 29.0664 19.0134C29.0664 20.2947 30.1051 21.3334 31.3864 21.3334Z" stroke="#019BF2" stroke-width="3" stroke-miterlimit="10" stroke-linecap="round" stroke-linejoin="round"/>
<path d="M12.0534 21.3334C13.3347 21.3334 14.3734 20.2947 14.3734 19.0134C14.3734 17.7321 13.3347 16.6934 12.0534 16.6934C10.7721 16.6934 9.7334 17.7321 9.7334 19.0134C9.7334 20.2947 10.7721 21.3334 12.0534 21.3334Z" stroke="#019BF2" stroke-width="3" stroke-miterlimit="10" stroke-linecap="round" stroke-linejoin="round"/>
</svg>
